<svg width="481" height="90" xmlns="http://www.w3.org/2000/svg">
 <!-- Generator: Sketch 39.1 (31720) - http://www.bohemiancoding.com/sketch -->
 <title>Slice 1</title>
 <desc>Created with Sketch.</desc>

 <g>
  <title>background</title>
  <rect fill="none" id="canvas_background" height="92" width="483" y="-1" x="-1"/>
 </g>
 <g>
  <title>Layer 1</title>
  <g fill-rule="evenodd" fill="none" id="Page-1">
   <g stroke="null" id="Group">
    <g stroke="null" id="the-score-logo">
     <g stroke="null" id="C9C34A7C-F694-4C00-B80C-F612B960894A">
      <g stroke="null" id="Nav-Bar">
       <g stroke="null" id="Nav_Contact_Desktop-(≥-768---1440px)">
        <g stroke="null" id="Nav_Contact">
         <g stroke="null" id="theScore-logo">
          <path stroke="null" fill="#FFFFFF" id="Fill-1" d="m43.49419,19.53326l-3.22484,11.48174l-8.11396,0l-5.30462,19.2771c-1.66352,5.91888 -1.97608,7.35933 5.82605,8.15809l-3.12041,11.41743l-12.36905,0.70078c-16.39085,0.95881 -19.39868,-3.31843 -15.87165,-16.0372l6.43117,-23.5162l-3.00783,0l3.21596,-11.48174l3.00856,0l2.6975,-9.81917l25.88095,-5.34898l-4.1603,15.16815l8.11247,0l0,0z"/>
          <path stroke="null" fill="#FFFFFF" id="Fill-3" d="m92.06109,18.39682c9.14866,-0.1578 16.11681,3.10977 12.9964,14.59301l-5.20093,18.87847c-1.35245,4.87855 -1.35245,5.51875 1.04063,6.6391l-3.12041,11.23719l-26.0476,0c0.10296,-3.15913 -0.5192,-2.9183 2.48937,-13.71797l0.51772,-1.91911l4.04624,-14.71865c0.72659,-2.55931 1.66056,-6.47831 -4.14993,-6.95846c-1.03767,0 -2.0746,0.1608 -3.21596,0.55943l-5.22388,18.87847c-1.35986,4.5592 -1.6739,5.43798 1.15172,6.6391l-3.13892,11.23719l-30.43232,0l3.12041,-11.23719c3.52777,-1.35968 3.73516,-2.5608 4.77208,-6.319l9.1294,-32.99282c0.8288,-3.3461 1.34801,-5.49781 -1.34948,-6.61218l3.113,-11.23195l27.57262,0l-5.60162,20.31594c3.52703,-1.43597 8.40355,-3.19054 17.53146,-3.27057"/>
          <path stroke="null" fill="#FFFFFF" id="Fill-5" d="m109.4088,38.24532l-3.73515,13.6357c-1.03693,3.82924 -1.66057,6.9405 -1.34801,9.33303c0.93249,7.4947 9.02497,10.12581 28.51919,10.04578c9.87376,-0.07928 20.14452,-2.55108 27.30672,-6.45811l3.53666,-12.6006l-24.49665,0l-0.51772,1.83459c-1.55687,5.66235 -4.46323,5.58307 -6.14231,5.50454c-3.99143,-0.08077 -3.88551,-2.39477 -2.94117,-5.74386l1.25987,-4.628l33.66975,0l3.32853,-11.88412c4.16178,-15.22124 -5.20019,-18.41103 -24.50776,-18.41103c-26.15203,0 -30.82043,8.2927 -33.93195,19.37208m34.24377,-0.55793l-9.54713,0c1.76647,-6.36612 3.52925,-7.17236 6.64299,-7.09233c4.35658,0.08077 4.04402,2.98187 2.90414,7.09233"/>
          <polygon stroke="null" points="226.436279 88.4188824 229.904058 76.1645545 162.868227 76.1645545 159.400448 88.4188824" fill="#FFBF00" id="Fill-7"/>
          <path stroke="null" fill="#FFFFFF" id="Fill-9" d="m211.75903,14.73765c-5.82531,-0.08152 -7.28071,5.03262 -6.96963,6.7109c0.72881,3.99378 13.21193,5.43199 19.76456,7.26958c13.00232,3.67368 14.77176,10.38608 12.27499,19.17389l-0.10443,0.3201c-3.95366,14.28188 -15.18654,22.80494 -40.42533,22.88422c-13.39413,0.08003 -23.49009,-2.39028 -30.15161,-7.16861l4.99651,-18.3527l27.01564,0c-0.41403,1.75756 -0.93027,3.43585 -1.3443,5.11264c-0.51624,1.75906 -1.55095,5.59204 4.23881,5.67356c2.07163,0.07928 5.50386,-0.87878 6.85705,-5.27269c1.87165,-6.23224 -2.18496,-7.3511 -13.36969,-9.50804c-10.8033,-2.15619 -22.25319,-4.71251 -17.8818,-20.61285c3.95513,-14.27739 15.71166,-20.96735 37.80412,-20.96735c13.00381,0 22.46872,1.8316 30.89375,7.16936l-4.47137,16.11498l-25.90317,0l0.31256,-1.27816c1.45688,-5.27194 0.52068,-7.1903 -3.53666,-7.26883"/>
          <path stroke="null" fill="#FFFFFF" id="Fill-11" d="m280.01413,34.12896c0.66512,-2.36785 0.77548,-3.88833 0.1111,-4.7342c-0.44217,-0.84588 -1.4391,-1.26769 -3.21003,-1.26769c-3.65368,0 -5.09205,0.93038 -6.64225,6.67649l-4.71209,16.99003c-1.64427,6.08565 -0.43773,6.84627 2.84858,6.93153c3.08116,0 5.07502,-0.93039 7.17628,-8.53652l0.77547,-2.79042l24.45518,0l-4.53063,16.49492c-7.08295,4.40587 -17.26854,7.20152 -32.58765,7.28454c-25.95057,0.08451 -26.94602,-8.97928 -24.07151,-19.55308l4.97428,-17.74989c3.09597,-11.16987 9.7286,-18.11561 33.86381,-18.20237c15.38799,-0.08451 23.89968,2.88091 29.31392,6.60844l-3.9781,14.55187l-24.44999,0l0.44218,-1.69025l0.22145,-1.0134l0,0z"/>
          <path stroke="null" fill="#FFFFFF" id="Fill-13" d="m364.778,49.76618l3.86848,-13.86231c4.19955,-15.14795 -0.55253,-20.40119 -27.0823,-20.23142c-26.16463,0.16977 -31.02781,6.69295 -34.78815,20.23142l-3.86774,13.86231c-4.75357,17.00573 0.21998,21.49612 25.84762,21.41161c23.42047,-0.08302 31.38111,-4.82919 36.02209,-21.41161m-36.35168,1.69025l4.18474,-15.38503c1.32504,-4.47842 2.31901,-8.02944 7.18442,-7.94493c3.20558,0 4.53211,1.43746 2.65305,7.94493l-4.20104,15.38503c-2.10051,7.43786 -4.42249,7.35335 -7.06813,7.26884c-4.62618,-0.08526 -4.18548,-2.36785 -2.75304,-7.26884"/>
          <path stroke="null" fill="#FFFFFF" id="Fill-15" d="m416.17735,15.53813l2.98413,0.25578l-4.97355,18.20985c-9.39381,0 -13.70521,1.95127 -16.02496,10.17965l-1.43837,5.17547c-0.8836,3.3087 -3.53665,6.53215 1.32653,8.82296l-3.3152,11.92675l-32.9439,0l3.31742,-12.09652c1.5465,-0.59458 3.53666,-1.18766 5.19426,-7.04222l4.20252,-15.10083c1.21543,-4.49188 1.43688,-5.42377 -1.21765,-7.0325l3.31668,-12.11222l27.9674,0l-1.21691,4.2361c4.64247,-4.40588 7.95841,-5.42227 12.8216,-5.42227"/>
          <path stroke="null" fill="#FFFFFF" id="Fill-17" d="m417.28975,36.11994l-3.97958,14.48307c-1.10655,4.06109 -1.76944,7.35932 -1.43614,9.90143c0.99323,7.96363 9.61676,10.75779 30.35084,10.67327c10.51518,-0.08301 21.46069,-2.70964 29.08876,-6.86122l3.75664,-13.37543l-26.08982,0l-0.55253,1.94678c-1.6576,6.00638 -4.75357,5.92186 -6.5356,5.83735c-4.23288,-0.08526 -4.12179,-2.53912 -3.11893,-6.09164l1.3369,-4.90771l35.84359,0l3.53666,-12.6193c4.42101,-16.04468 -5.52534,-19.43416 -26.08759,-19.43416c-27.82149,0 -32.79578,8.81174 -36.1132,20.44756m36.44575,-0.59458l-10.17373,0c1.88202,-6.64209 3.76108,-7.48348 7.07777,-7.39897c4.64394,0.08377 4.31139,3.11201 3.09596,7.39897"/>
         </g>
        </g>
       </g>
      </g>
     </g>
    </g>
    <g stroke="null" id="the-score-logo">
     <g stroke="null" id="C9C34A7C-F694-4C00-B80C-F612B960894A">
      <g stroke="null" id="Nav-Bar">
       <g stroke="null" id="Nav_Contact_Desktop-(≥-768---1440px)">
        <g stroke="null" id="Nav_Contact">
         <g stroke="null" id="theScore-logo">
          <polygon stroke="null" points="226.436279296875,198.41888427734375 229.90406036376953,186.16455078125 162.86822724342346,186.16455078125 159.40044823288918,198.41888427734375 " fill="#FFBF00" id="Fill-7"/>
          <path stroke="null" fill="#FFFFFF" id="Fill-9" d="m211.75903,124.73765c-5.82531,-0.08152 -7.28071,5.03262 -6.96963,6.7109c0.72881,3.99378 13.21192,5.43199 19.76456,7.26958c13.00232,3.67368 14.77176,10.38608 12.27499,19.17389l-0.10443,0.3201c-3.95366,14.28188 -15.18653,22.80494 -40.42533,22.88422c-13.39413,0.08003 -23.49009,-2.39028 -30.15161,-7.16861l4.99651,-18.3527l27.01564,0c-0.41403,1.75756 -0.93027,3.43585 -1.3443,5.11264c-0.51624,1.75906 -1.55095,5.59204 4.23881,5.67356c2.07163,0.07928 5.50386,-0.87878 6.85705,-5.27269c1.87165,-6.23224 -2.18496,-7.3511 -13.36969,-9.50804c-10.8033,-2.15619 -22.25319,-4.71251 -17.8818,-20.61285c3.95513,-14.27739 15.71166,-20.96735 37.80412,-20.96735c13.0038,0 22.46872,1.8316 30.89375,7.16936l-4.47137,16.11498l-25.90317,0l0.31256,-1.27816c1.45688,-5.27194 0.52068,-7.1903 -3.53666,-7.26883"/>
         </g>
        </g>
       </g>
      </g>
     </g>
    </g>
   </g>
  </g>
 </g>
</svg>